<svg width="32" height="32" fill="none" xmlns="http://www.w3.org/2000/svg">
  <rect x=".5" y=".5" width="31" height="31" rx="6.5" fill="#fff" stroke="#D3D3D3" />
  <path
    d="M21.149 11.356h0a3.71 3.71 0 00-1.178-.773h-.001a3.754 3.754 0 00-1.439-.283h-.002c-.694 0-1.37.189-1.957.544h0c-.14.085-.273.178-.399.279l-.439.353-.439-.353a3.635 3.635 0 00-.398-.28h0a3.778 3.778 0 00-1.958-.543c-.502 0-.984.095-1.44.283h-.001a3.701 3.701 0 00-1.178.773h-.001 0a3.573 3.573 0 00-.793 1.146l11.623-1.146zm0 0a3.6 3.6 0 01.794 1.146c.194.447.292.918.29 1.404v.002c0 .455-.093.943-.291 1.457v.002m-.793-4.011l.792 4.01m-9.561 3.747h0a24.523 24.523 0 003.034 2.354l.002.001.01.007h0l.307.195.307-.195h0a24.565 24.565 0 003.047-2.362H12.38zm0 0c-.905-.828-1.617-1.631-2.125-2.383m2.125 2.383l-2.125-2.383m11.686-1.363a6.855 6.855 0 01-.73 1.363m.73-1.363l-.73 1.363m-10.956 0a6.938 6.938 0 01-.73-1.365l.73 1.365zm10.956 0c-.508.752-1.22 1.555-2.124 2.383l2.124-2.383zM9.233 13.908c0-.487.099-.96.293-1.406l-.001 2.863a4.056 4.056 0 01-.292-1.457z"
    stroke="#D3D3D3" stroke-width="1.4" />
</svg>